<?xml version="1.0" encoding="UTF-8" standalone="no"?>
<!-- Created with Inkscape (http://www.inkscape.org/) -->

<svg
   width="48"
   height="48"
   viewBox="0 0 48 48"
   version="1.1"
   id="svg1"
   inkscape:export-filename="bitmap.png"
   inkscape:export-xdpi="96"
   inkscape:export-ydpi="96"
   sodipodi:docname="icon.svg"
   xml:space="preserve"
   inkscape:version="1.4 (86a8ad7, 2024-10-11)"
   xmlns:inkscape="http://www.inkscape.org/namespaces/inkscape"
   xmlns:sodipodi="http://sodipodi.sourceforge.net/DTD/sodipodi-0.dtd"
   xmlns="http://www.w3.org/2000/svg"
   xmlns:svg="http://www.w3.org/2000/svg"><sodipodi:namedview
     id="namedview1"
     pagecolor="#ffffff"
     bordercolor="#000000"
     borderopacity="0.25"
     inkscape:showpageshadow="2"
     inkscape:pageopacity="0.0"
     inkscape:pagecheckerboard="0"
     inkscape:deskcolor="#d1d1d1"
     inkscape:document-units="px"
     inkscape:zoom="16.8125"
     inkscape:cx="24"
     inkscape:cy="24"
     inkscape:window-width="1920"
     inkscape:window-height="1009"
     inkscape:window-x="-8"
     inkscape:window-y="349"
     inkscape:window-maximized="1"
     inkscape:current-layer="layer1"><inkscape:page
       x="0"
       y="0"
       width="48"
       height="48"
       id="page2"
       margin="0"
       bleed="0" /></sodipodi:namedview><defs
     id="defs1"><radialGradient
       cx="18.0672064%"
       cy="50%"
       fx="18.0672064%"
       fy="50%"
       r="104.471507%"
       gradientTransform="translate(0.180672,0.500000),scale(0.177119,1.000000),rotate(90.000000),scale(1.000000,3.076269),translate(-0.180672,-0.500000)"
       id="radialGradient-1"><stop
         stop-color="#E2DFDF"
         offset="0%"
         id="stop1" /><stop
         stop-color="#9B9B9B"
         offset="100%"
         id="stop2" /></radialGradient><path
       d="M5.2663341,3.63195626 L1.81597813,3.63195626 L1.81597813,3.63195626 C0.813041103,3.63195626 1.22824362e-16,2.81891516 0,1.81597813 L0,1.81597813 L0,1.81597813 C-1.22824362e-16,0.813041103 0.813041103,1.84236543e-16 1.81597813,0 L1.81597813,0 L5.31916422,0 C5.49304555,0.354305094 5.85738649,0.59820456 6.2786932,0.59820456 L7.6439088,0.59820456 C8.06521552,0.59820456 8.42955646,0.354305094 8.60343779,7.21644966e-16 L18.6897455,0 L18.6897455,-6.66133815e-16 C19.6926826,-8.50370358e-16 20.5057237,0.813041103 20.5057237,1.81597813 L20.5057237,1.81597813 C20.5057237,2.81891516 19.6926826,3.63195626 18.6897455,3.63195626 L8.65626791,3.63195626 C8.51372063,3.20963825 8.11432477,2.90556501 7.6439088,2.90556501 L7.6439088,2.90556501 L6.2786932,2.90556501 C5.80827723,2.90556501 5.40888137,3.20963825 5.2663341,3.63195626 Z M1.86660102,0.726391252 L1.86660102,0.726391252 C1.27663806,0.726391252 0.798378586,1.20465072 0.798378586,1.79461368 C0.798378586,2.38457664 1.27663806,2.86283611 1.86660102,2.86283611 L3.23181662,2.86283611 C3.82177958,2.86283611 4.30003905,2.38457664 4.30003905,1.79461368 L4.30003905,1.79461368 C4.30003905,1.20465072 3.82177958,0.726391252 3.23181662,0.726391252 L3.23181662,0.726391252 L1.86660102,0.726391252 Z"
       id="path-2" /><path
       d="M5.2663341,3.63195626 L1.81597813,3.63195626 L1.81597813,3.63195626 C0.813041103,3.63195626 1.22824362e-16,2.81891516 0,1.81597813 L0,1.81597813 L0,1.81597813 C-1.22824362e-16,0.813041103 0.813041103,1.84236543e-16 1.81597813,0 L1.81597813,0 L5.31916422,0 C5.49304555,0.354305094 5.85738649,0.59820456 6.2786932,0.59820456 L7.6439088,0.59820456 C8.06521552,0.59820456 8.42955646,0.354305094 8.60343779,9.71445147e-16 L18.6897455,0 L18.6897455,3.33066907e-15 C19.6926826,1.36485848e-15 20.5057237,0.813041103 20.5057237,1.81597813 L20.5057237,1.81597813 L20.5057237,1.81597813 C20.5057237,2.81891516 19.6926826,3.63195626 18.6897455,3.63195626 L8.65626791,3.63195626 C8.51372063,3.20963825 8.11432477,2.90556501 7.6439088,2.90556501 L7.6439088,2.90556501 L6.2786932,2.90556501 C5.80827723,2.90556501 5.40888137,3.20963825 5.2663341,3.63195626 Z M1.86660102,0.726391252 L1.86660102,0.726391252 C1.27663806,0.726391252 0.798378586,1.20465072 0.798378586,1.79461368 L0.798378586,1.79461368 L0.798378586,1.79461368 C0.798378586,2.38457664 1.27663806,2.86283611 1.86660102,2.86283611 L3.23181662,2.86283611 C3.82177958,2.86283611 4.30003905,2.38457664 4.30003905,1.79461368 L4.30003905,1.79461368 C4.30003905,1.20465072 3.82177958,0.726391252 3.23181662,0.726391252 L3.23181662,0.726391252 L1.86660102,0.726391252 Z"
       id="path-3" /><path
       d="M5.2663341,3.63195626 L1.81597813,3.63195626 L1.81597813,3.63195626 C0.813041103,3.63195626 1.22824362e-16,2.81891516 0,1.81597813 L0,1.81597813 L0,1.81597813 C-1.22824362e-16,0.813041103 0.813041103,1.84236543e-16 1.81597813,0 L1.81597813,0 L5.31916422,0 C5.49304555,0.354305094 5.85738649,0.59820456 6.2786932,0.59820456 L7.6439088,0.59820456 C8.06521552,0.59820456 8.42955646,0.354305094 8.60343779,1.05471187e-15 L18.6897455,0 L18.6897455,2.88657986e-15 C19.6926826,9.20769273e-16 20.5057237,0.813041103 20.5057237,1.81597813 L20.5057237,1.81597813 C20.5057237,2.81891516 19.6926826,3.63195626 18.6897455,3.63195626 L8.65626791,3.63195626 C8.51372063,3.20963825 8.11432477,2.90556501 7.6439088,2.90556501 L7.6439088,2.90556501 L6.2786932,2.90556501 C5.80827723,2.90556501 5.40888137,3.20963825 5.2663341,3.63195626 Z M1.86660102,0.726391252 L1.86660102,0.726391252 C1.27663806,0.726391252 0.798378586,1.20465072 0.798378586,1.79461368 C0.798378586,2.38457664 1.27663806,2.86283611 1.86660102,2.86283611 L3.23181662,2.86283611 C3.82177958,2.86283611 4.30003905,2.38457664 4.30003905,1.79461368 L4.30003905,1.79461368 C4.30003905,1.20465072 3.82177958,0.726391252 3.23181662,0.726391252 L3.23181662,0.726391252 L1.86660102,0.726391252 Z"
       id="path-4" /><linearGradient
       x1="0%"
       y1="0%"
       x2="100%"
       y2="100%"
       id="linearGradient-5"><stop
         stop-color="#6FB8FD"
         offset="0%"
         id="stop3" /><stop
         stop-color="#4474B1"
         offset="100%"
         id="stop4" /></linearGradient><linearGradient
       x1="94.4980241%"
       y1="96.484375%"
       x2="-56.500648%"
       y2="0%"
       id="linearGradient-6"><stop
         stop-color="#DBEEFF"
         offset="0%"
         id="stop5" /><stop
         stop-color="#024FB5"
         offset="100%"
         id="stop6" /></linearGradient><linearGradient
       x1="6.123234e-15%"
       y1="0%"
       x2="100%"
       y2="100%"
       id="linearGradient-7"><stop
         stop-color="#82BCFD"
         offset="0%"
         id="stop7" /><stop
         stop-color="#5F91D4"
         offset="100%"
         id="stop8" /></linearGradient><path
       d="M10.4829128,15.25 L4.72445224,17.6352325 L5.20280653,18.7900819 L10.9612671,16.4048494 L6.55393219,20.8121843 L7.43781566,21.6960678 L11.8451506,17.2887329 L9.45991811,23.0471935 L10.6147675,23.5255478 L13,17.7670872 L13,25.25 L14.25,25.25 L14.25,17.7670872 L16.6352325,23.5255478 L17.7900819,23.0471935 L15.4048494,17.2887329 L19.8121843,21.6960678 L20.6960678,20.8121843 L16.2887329,16.4048494 L22.0471935,18.7900819 L22.5255478,17.6352325 L16.7670872,15.25 L24.25,15.25 L24.25,14 L16.7670872,14 L22.5255478,11.6147675 L22.0471935,10.4599181 L16.2887329,12.8451506 L20.6960678,8.43781566 L19.8121843,7.55393219 L15.4048494,11.9612671 L17.7900819,6.20280653 L16.6352325,5.72445224 L14.25,11.4829128 L14.25,4 L13,4 L13,11.4829128 L10.6147675,5.72445224 L9.45991811,6.20280653 L11.8451506,11.9612671 L7.43781566,7.55393219 L6.55393219,8.43781566 L10.9612671,12.8451506 L5.20280653,10.4599181 L4.72445224,11.6147675 L10.4829128,14 L3,14 L3,15.25 L10.4829128,15.25 Z"
       id="path-8" /><filter
       x="-0.33882353"
       y="-0.33882353"
       width="1.8658824"
       height="1.8658824"
       filterUnits="objectBoundingBox"
       id="filter-9"><feGaussianBlur
         stdDeviation="3"
         in="SourceAlpha"
         result="shadowBlurInner1"
         id="feGaussianBlur8" /><feOffset
         dx="4"
         dy="4"
         in="shadowBlurInner1"
         result="shadowOffsetInner1"
         id="feOffset8" /><feComposite
         in="shadowOffsetInner1"
         in2="SourceAlpha"
         operator="arithmetic"
         k2="-1"
         k3="1"
         result="shadowInnerInner1"
         id="feComposite8" /><feColorMatrix
         values="0 0 0 0 0   0 0 0 0 0   0 0 0 0 0  0 0 0 0.163977582 0"
         type="matrix"
         in="shadowInnerInner1"
         id="feColorMatrix8" /></filter><linearGradient
       x1="13.4633819%"
       y1="14.1871166%"
       x2="87.4808282%"
       y2="85.846434%"
       id="linearGradient-10"><stop
         stop-color="#E3E3E3"
         offset="0%"
         id="stop9" /><stop
         stop-color="#FFFFFF"
         offset="100%"
         id="stop10" /></linearGradient><ellipse
       id="path-11"
       cx="6.44472137"
       cy="6.48802498"
       rx="6.44472137"
       ry="6.48802498" /><linearGradient
       x1="50%"
       y1="0%"
       x2="50%"
       y2="100%"
       id="linearGradient-13"><stop
         stop-color="#4F4F4F"
         offset="0%"
         id="stop11" /><stop
         stop-color="#C6C6C6"
         offset="100%"
         id="stop12" /></linearGradient><rect
       id="path-14"
       x="-3.00490076"
       y="5.17449845"
       width="18.8992443"
       height="2.70666073" /><filter
       x="-0.27514328"
       y="-2.1601043"
       width="1.8677596"
       height="7.5369623"
       filterUnits="objectBoundingBox"
       id="filter-15"><feMorphology
         radius="2"
         operator="erode"
         in="SourceAlpha"
         result="shadowSpreadInner1"
         id="feMorphology12" /><feGaussianBlur
         stdDeviation="3"
         in="shadowSpreadInner1"
         result="shadowBlurInner1"
         id="feGaussianBlur12" /><feOffset
         dx="6"
         dy="6"
         in="shadowBlurInner1"
         result="shadowOffsetInner1"
         id="feOffset12" /><feComposite
         in="shadowOffsetInner1"
         in2="SourceAlpha"
         operator="arithmetic"
         k2="-1"
         k3="1"
         result="shadowInnerInner1"
         id="feComposite12" /><feColorMatrix
         values="0 0 0 0 0   0 0 0 0 0   0 0 0 0 0  0 0 0 0.168251812 0"
         type="matrix"
         in="shadowInnerInner1"
         id="feColorMatrix12" /></filter><ellipse
       id="path-16"
       cx="13.8518213"
       cy="14.4368321"
       rx="6.44472137"
       ry="6.48802498" /><filter
       x="-0.09309945"
       y="-0.092478063"
       width="1.4965304"
       height="1.4932163"
       filterUnits="objectBoundingBox"
       id="filter-17"><feMorphology
         radius="6"
         operator="erode"
         in="SourceAlpha"
         result="shadowSpreadInner1"
         id="feMorphology13" /><feGaussianBlur
         stdDeviation="3"
         in="shadowSpreadInner1"
         result="shadowBlurInner1"
         id="feGaussianBlur13" /><feOffset
         dx="4"
         dy="4"
         in="shadowBlurInner1"
         result="shadowOffsetInner1"
         id="feOffset13" /><feComposite
         in="shadowOffsetInner1"
         in2="SourceAlpha"
         operator="arithmetic"
         k2="-1"
         k3="1"
         result="shadowInnerInner1"
         id="feComposite13" /><feColorMatrix
         values="0 0 0 0 0   0 0 0 0 0   0 0 0 0 0  0 0 0 0.139351223 0"
         type="matrix"
         in="shadowInnerInner1"
         id="feColorMatrix13" /></filter></defs><g
     inkscape:label="Capa 1"
     inkscape:groupmode="layer"
     id="layer1"><g
       id="g3"
       transform="matrix(0.04614181,0,0,0.04614181,-1.1737121,0.90479538)"><path
         class="cls-4"
         d="m 538.55,835.78 c -4.81,0.02 -9.62,-1.17 -13.96,-3.58 L 239.78,674.62 c -9.11,-5.04 -14.77,-14.63 -14.77,-25.05 V 317.43 c 0,-10.59 5.85,-20.31 15.2,-25.28 L 521.43,142.79 c 3.83,-2.04 8.01,-3.14 12.22,-3.32"
         id="path1"
         style="fill:#c9cacc" /><path
         class="cls-3"
         d="m 533.65,139.47 c 4.92,-0.21 9.88,0.85 14.37,3.18 l 288.61,149.56 c 9.49,4.92 15.45,14.72 15.45,25.42 v 329.49 c 0,10.35 -5.59,19.89 -14.61,24.96 L 552.45,832.11 c -4.32,2.43 -9.11,3.65 -13.91,3.67"
         id="path2"
         style="fill:#acadb1" /><path
         class="cls-5"
         d="m 233.59,740.55 296.69,-174.9 c 5.11,-3.01 11.45,-3.03 16.57,-0.04 l 300.01,174.9 c 10.93,6.37 10.82,22.19 -0.19,28.41 L 546.65,938.44 c -5.03,2.84 -11.17,2.82 -16.18,-0.04 L 233.78,768.88 c -10.92,-6.24 -11.03,-21.95 -0.19,-28.33 z"
         id="path3"
         style="opacity:0.3;fill:#93969b" /></g><g
       id="g5"
       transform="matrix(0.04614181,0,0,0.04614181,-1.1737121,0.90479538)"><polygon
         class="cls-2"
         points="255.37,646.85 255.37,335.71 524.85,491.29 524.85,802.43 "
         id="polygon3"
         style="fill:#8a8b8f" /><path
         class="cls-6"
         d="M 538.55,467.53 C 448.18,415.61 357.81,363.69 267.44,311.77 357.81,259.98 448.19,208.19 538.56,156.4 628.22,208.19 717.88,259.98 807.54,311.77 717.88,363.69 628.21,415.61 538.55,467.53 Z"
         id="path4"
         style="fill:#b3b8bb" /><path
         class="cls-1"
         d="m 821.73,407.51 v -51.99 c -6.89,-2.62 -13.78,-5.25 -20.68,-7.87 l -228.06,131.66 -20.72,35.91 v 143.61 l 10.09,5.82 10.64,6.14 186.55,-107.71 v 47.87 l -185.19,106.92 -22.08,37.09 v 47.46 L 801.01,658.8 821.73,622.89 V 479.29 L 801.01,467.33 614.46,575.03 V 527.16 L 821.73,407.5 Z"
         id="path5"
         style="fill:#303135" /></g></g></svg>
